<?xml version="1.0" standalone="no"?>
<!DOCTYPE svg PUBLIC "-//W3C//DTD SVG 1.1//EN" "http://www.w3.org/Graphics/SVG/1.1/DTD/svg11.dtd">
<svg xmlns="http://www.w3.org/2000/svg">
<metadata>Copyright (C) 2019 by original authors @ fontello.com</metadata>
<defs>
<font id="phagedir" horiz-adv-x="1000" >
<font-face font-family="phagedir" font-weight="400" font-stretch="normal" units-per-em="1000" ascent="850" descent="-150" />
<missing-glyph horiz-adv-x="1000" />
<glyph glyph-name="mail" unicode="&#xe800;" d="M929 11v428q-18-20-39-36-149-115-238-189-28-24-46-37t-48-28-57-13h-2q-26 0-57 13t-48 28-46 37q-88 74-238 189-21 16-39 36v-428q0-7 6-13t12-5h822q7 0 12 5t6 13z m0 586v14t-1 7-1 7-3 5-5 4-8 2h-822q-7 0-12-6t-6-12q0-94 83-159 107-84 223-176 4-3 20-17t25-21 25-17 28-16 24-5h2q11 0 24 5t28 16 25 17 25 21 20 17q116 92 224 176 30 24 56 65t26 73z m71 21v-607q0-37-26-63t-63-27h-822q-36 0-63 27t-26 63v607q0 37 26 63t63 26h822q37 0 63-26t26-63z" horiz-adv-x="1000" />

<glyph glyph-name="bookmark" unicode="&#xe803;" d="M650 779q12 0 24-5 19-8 29-23t11-35v-719q0-19-11-35t-29-23q-10-4-24-4-27 0-47 18l-246 236-246-236q-20-19-46-19-13 0-25 5-18 7-29 23t-11 35v719q0 19 11 35t29 23q12 5 25 5h585z" horiz-adv-x="714.3" />

<glyph glyph-name="tag" unicode="&#xe804;" d="M250 600q0 30-21 51t-50 20-51-20-21-51 21-50 51-21 50 21 21 50z m595-321q0-30-20-51l-274-274q-22-21-51-21-30 0-50 21l-399 399q-21 21-36 57t-15 65v232q0 29 21 50t50 22h233q29 0 65-15t57-36l399-399q20-21 20-50z" horiz-adv-x="857.1" />

<glyph glyph-name="down-open" unicode="&#xe805;" d="M939 399l-414-413q-10-11-25-11t-25 11l-414 413q-11 11-11 26t11 25l93 92q10 11 25 11t25-11l296-296 296 296q11 11 25 11t26-11l92-92q11-11 11-25t-11-26z" horiz-adv-x="1000" />

<glyph glyph-name="left-open" unicode="&#xe806;" d="M654 682l-297-296 297-297q10-10 10-25t-10-25l-93-93q-11-10-25-10t-25 10l-414 415q-11 10-11 25t11 25l414 414q10 11 25 11t25-11l93-93q10-10 10-25t-10-25z" horiz-adv-x="714.3" />

<glyph glyph-name="right-open" unicode="&#xe807;" d="M618 361l-414-415q-11-10-25-10t-25 10l-93 93q-11 11-11 25t11 25l296 297-296 296q-11 11-11 25t11 25l93 93q10 11 25 11t25-11l414-414q10-11 10-25t-10-25z" horiz-adv-x="714.3" />

<glyph glyph-name="up-open" unicode="&#xe808;" d="M939 107l-92-92q-11-10-26-10t-25 10l-296 297-296-297q-11-10-25-10t-25 10l-93 92q-11 11-11 26t11 25l414 414q11 10 25 10t25-10l414-414q11-11 11-25t-11-26z" horiz-adv-x="1000" />

<glyph glyph-name="cc" unicode="&#xe809;" d="M474 830q198 2 340-136t146-336q2-200-136-342t-338-146q-198-2-341 137t-145 337q-4 200 135 342t339 144z m12-858q156 2 266 114t108 270-115 267-269 107q-158-2-267-114t-107-270 114-267 270-107z m-124 298q40 0 58 40l56-30q-20-36-50-52-32-20-70-20-62 0-100 38-38 36-38 104t38 106 96 38q86 0 124-66l-62-32q-10 20-24 28t-28 8q-60 0-60-82 0-38 14-58 18-22 46-22z m266 0q42 0 56 40l58-30q-18-32-50-52t-70-20q-64 0-100 38-38 36-38 104 0 64 38 106 38 38 98 38 84 0 120-66l-60-32q-10 20-24 28t-28 8q-62 0-62-82 0-36 16-58t46-22z" horiz-adv-x="960" />

<glyph glyph-name="cc-by" unicode="&#xe80a;" d="M480 526q-66 0-66 68t66 68q68 0 68-68t-68-68z m98-26q14 0 22-8 10-10 10-22l0-196-56 0 0-234-148 0 0 234-56 0 0 196q0 12 10 22 8 8 22 8l196 0z m-98 330q200 0 340-140t140-340q0-198-140-339t-340-141q-198 0-339 141t-141 339q0 200 141 340t339 140z m0-872q162 0 277 115t115 277q0 164-115 278t-277 114-277-114-115-278q0-162 115-277t277-115z" horiz-adv-x="960" />

<glyph glyph-name="cc-nc" unicode="&#xe80b;" d="M480 830q200 0 340-140t140-340q0-198-140-339t-340-141q-198 0-339 141t-141 339q0 200 141 340t339 140z m-370-350q-22-62-22-130 0-162 115-277t277-115q110 0 202 56t142 148l-178 80q-8-46-46-74-38-30-86-34l0-74-56 0 0 74q-78 0-146 58l66 66q50-44 108-44 24 0 42 12t18 36q0 18-14 30l-46 20-56 26-76 32z m506-122l242-108q14 44 14 100 0 164-115 278t-277 114q-102 0-188-48t-140-130l182-82q12 36 46 62 32 22 78 24l0 74 56 0 0-74q68-4 120-44l-62-64q-44 28-84 28-24 0-38-8-18-10-18-30 0-8 4-12l60-28 42-18z" horiz-adv-x="960" />

<glyph glyph-name="cc-sa" unicode="&#xe80c;" d="M478 604q114 0 180-74 66-72 66-186 0-110-68-184-74-74-180-74-80 0-142 50-58 48-70 138l120 0q6-86 106-86 50 0 82 42 30 44 30 118 0 76-28 116-30 40-82 40-96 0-108-86l36 0-96-94-94 94 36 0q14 90 72 138t140 48z m2 226q200 0 340-140t140-340q0-198-140-339t-340-141q-198 0-339 141t-141 339q0 200 141 340t339 140z m0-872q162 0 277 115t115 277q0 164-115 278t-277 114-277-114-115-278q0-162 115-277t277-115z" horiz-adv-x="960" />

<glyph glyph-name="cancel" unicode="&#xe80d;" d="M452 194q18-18 18-43t-18-43q-18-16-43-16t-43 16l-132 152-132-152q-18-16-43-16t-43 16q-16 18-16 43t16 43l138 156-138 158q-16 18-16 43t16 43q18 16 43 16t43-16l132-152 132 152q18 16 43 16t43-16q18-18 18-43t-18-43l-138-158z" horiz-adv-x="470" />

<glyph glyph-name="search" unicode="&#xe80e;" d="M772 78q30-34 6-62l-46-46q-36-32-68 0l-190 190q-74-42-156-42-128 0-223 95t-95 223 90 219 218 91 224-95 96-223q0-88-46-162z m-678 358q0-88 68-156t156-68 151 63 63 153q0 88-68 155t-156 67-151-63-63-151z" horiz-adv-x="789" />

<glyph glyph-name="researcherid" unicode="&#xe91a;" d="M184-73v857h299c77 0 131-8 164-23s59-42 81-80 31-84 31-137c0-67-16-121-48-162s-78-67-137-77c30-22 55-46 75-72 20-26 47-72 81-139l86-167h-170l-102 186c-37 68-62 110-75 127s-28 28-43 35c-14 6-38 9-71 9h-29v-357h-142z m142 494h105c64 0 105 3 123 9s32 17 43 34c10 17 16 40 16 68 0 28-6 50-16 66s-26 28-45 34c-13 5-52 7-115 7h-111v-218z" horiz-adv-x="1000" />

<glyph glyph-name="publons" unicode="&#xe937;" d="M773 652c-8 18-18 34-29 49-28 34-64 64-107 76-65 18-137 1-190-40-12-9-22-19-31-30-4 23-6 47-11 70-3 3-5 7-10 7-12-1-22-5-33-10-45-19-90-39-135-59-5-2-11-3-14-8-1-6-1-13 0-19 3-7 10-9 15-13 15-8 30-15 43-26 12-9 18-24 19-38 0-5 0-10 0-15 0-177 0-354 0-531-1-23 1-45-3-68-2-10-8-22-19-24-17-1-35 1-52-1-4 0-6-5-5-9 0-10-1-20 0-30 0-3 3-5 4-6 32 0 64 3 96 3 61 1 122 0 183-3 5 0 12-1 14 6 0 10 0 21 0 32 0 5-5 7-10 7-13 1-26 1-39 1-8 0-16-1-23 3-7 4-10 12-11 20-6 28-4 56-5 84-1 63-2 126-2 188 26-11 54-17 83-20 49-5 99 5 142 29 55 29 97 79 120 136 19 45 27 93 27 141-1 34-5 67-17 98z m-120-259c-10-34-29-68-62-86-27-15-60-13-90-7-23 4-45 16-62 31-16 15-21 37-21 58 0 90 0 180 0 271 21 28 54 47 88 51 33 5 68-6 91-29 32-31 48-75 58-118 11-56 14-115-2-171z" horiz-adv-x="1000" />

<glyph glyph-name="open-access" unicode="&#xe939;" d="M749 302c-5 13-12 25-19 37v216c0 61-24 118-67 162s-101 67-162 67c0 0 0 0 0 0-62 0-119-24-162-67-44-44-68-101-68-162v-32h92v32c0 36 14 71 40 97 26 26 61 40 98 40 0 0 0 0 0 0 75 0 137-62 137-137v-126c-11 7-21 12-33 17-33 14-68 21-105 21s-72-7-105-21c-32-14-61-33-86-58-25-25-44-54-58-86-14-33-21-69-21-105 0-37 7-72 21-105 14-33 33-61 58-86 25-25 54-45 86-58 33-14 69-21 105-21s72 7 105 21c32 13 61 33 86 58 25 25 44 53 58 86 14 33 21 68 21 105 0 36-7 72-21 105z m-249-284c-98 0-178 80-178 179s80 178 178 178 179-80 179-178-81-179-179-179z m77 178c0-42-34-76-76-76s-76 34-76 76c0 42 34 76 76 76s76-34 76-76z" horiz-adv-x="1000" />

<glyph glyph-name="researchgate" unicode="&#xe95e;" d="M583 9c-46 50-107 131-158 221 84 20 147 99 147 178 0 117-91 171-210 171-61 0-110-3-156-3-42 0-83 0-109 1v-30l39-7c28-5 43-18 43-83v-410c0-65-15-77-43-82l-39-8v-30c28 1 77 3 126 3 47 0 107-2 133-3v30l-54 8c-28 4-43 17-43 82v174c25-2 47-2 81-2 63-114 124-199 158-239 31-37 79-61 139-61 18 0 37 3 48 8v27c-37 0-75 26-102 55z m-249 257c-35 0-51 1-75 3v261c24 2 57 2 85 2 87 0 139-45 139-129 0-82-56-137-149-137z m318 263c-1 5-2 12-2 19-1 7-2 16-2 26-1 11-1 23-1 37 0 15 0 27 1 37 0 11 1 19 2 27 0 7 1 14 2 19 1 6 3 11 4 16 9 27 24 47 45 61 20 14 45 21 75 21 15 0 29-2 42-6 12-3 23-8 32-15 10-6 18-13 25-22 7-8 13-17 17-27 2-3 1-5-1-7l-38-16c-4-1-6 0-8 3-8 16-15 26-27 34-12 7-24 11-42 11-20 0-29-4-41-13-13-9-22-20-27-37-1-3-2-7-3-11-1-5-2-10-3-17 0-6-1-14-1-23 0-10 0-21 0-35 0-13 0-24 0-34 0-9 1-17 1-24 1-6 2-12 3-16 1-4 2-8 3-11 5-17 13-26 24-34 11-7 24-12 44-12 18 0 34 5 45 12 10 8 19 18 23 32 2 6 4 13 5 22 2 9 2 19 2 32 0 2-2 3-4 3h-60c-4 0-5 1-5 5v35c0 3 1 5 5 5h111c4 0 5-2 5-5v-30c0-16 0-31-1-44-2-14-4-25-7-34-8-27-22-46-42-60-21-14-48-22-77-22-30 0-55 7-75 21-21 13-36 34-45 61-1 5-3 10-4 16z" horiz-adv-x="1000" />

<glyph glyph-name="doi" unicode="&#xe97e;" d="M257 413c-16 0-32-12-43-25-9-10-13-26-13-39 0-13 5-28 14-38 10-13 22-22 39-22 15 0 33 7 44 17 10 11 19 28 19 43 0 15-4 34-15 44-10 11-30 20-45 20z m302-4c-17 0-32-7-42-21-9-11-14-23-14-37 0-15 5-27 14-38 10-14 25-21 42-21 16 0 29 6 40 17 11 11 16 25 16 42 0 16-5 30-16 41-11 11-24 17-40 17z m-59 375c-237 0-429-192-429-429s192-428 429-428 429 192 429 428c0 237-192 429-429 429z m-102-560h-79v33c-8-11-27-21-35-26-15-8-34-13-53-13-29 0-56 10-79 30-27 24-40 62-40 102 0 40 14 73 42 97 23 20 50 35 79 35 17 0 38-1 53-8 9-5 24-14 33-24v171h79v-397z m272 37c-26-31-63-46-111-46-47 0-84 15-111 46-22 25-33 55-33 92 0 32 11 62 33 87 27 30 65 46 114 46 45 0 81-16 108-46 22-25 33-55 33-89 0-35-11-65-33-90z m67 344c9 9 21 14 34 14s24-5 33-14c10-9 14-20 14-33 0-14-4-25-14-34-9-9-20-14-33-14-13 0-25 5-34 14-9 9-14 20-14 34 0 13 5 24 14 33z m76-381h-84v252h84v-252z" horiz-adv-x="1000" />

<glyph glyph-name="figshare" unicode="&#xe981;" d="M269 637c20 0 36 15 36 36 0 20-16 36-36 36-20 0-36-16-37-36 0-19 17-36 37-36z m604-367c-20 0-37-16-37-36 0-19 17-36 36-36 20-1 37 16 37 36 0 21-16 36-36 36z m-143 367c21 0 36 16 36 36 0 21-16 37-37 36-19 0-35-17-35-36-1-20 16-36 36-36z m-231-638c-20 0-36-17-36-36 0-20 17-36 36-36 20-1 36 16 36 36 1 21-15 36-36 36z m121 19c-20 0-36-16-36-36 0-19 17-36 37-36 20 0 36 16 36 37 0 20-16 35-37 35z m272 373c-20 0-36-15-36-35-1-20 16-37 36-37 20 0 36 17 36 36 0 21-16 36-36 36z m-710-230c-20 0-36-16-36-36 0-20 17-37 37-36 19 0 35 17 35 36 0 20-16 36-36 36z m0 389c19-1 36 16 36 36 0 20-16 36-36 36-20 0-36-15-36-36 0-20 16-36 36-36z m439 142c20 0 36 17 36 37s-17 36-37 36c-20-1-36-17-35-37 0-19 16-36 36-36z m-458-458c0 20-16 36-36 36-20 1-37-15-37-36 0-19 16-36 36-36 19-1 37 16 37 36z m654 316c19 0 36 16 36 36 0 20-16 36-36 36-20 0-36-16-36-36 0-19 16-36 36-36z m-674-194c0 20-16 35-36 35-20 0-36-16-36-36 1-20 17-36 36-36 20 0 36 17 36 37z m356 356c20 0 36 16 36 36 0 20-15 36-35 36-20 0-36-16-36-36-1-20 16-36 35-36z m318-551c-20 0-36-17-36-36 0-20 17-37 36-36 20 0 36 17 36 36 0 20-16 36-36 36z m20 316c-1-19 16-36 35-36 20-1 36 16 36 35 1 20-15 36-35 37-19 0-36-16-36-36z m-710-36c19 0 35 16 35 36 0 20-16 36-36 36-20 0-35-16-35-36 0-20 16-36 36-36z m251 252c20 0 36 16 36 36 0 20-16 36-36 36-20-1-35-16-35-37 0-19 16-36 35-35z m-109-619c-20 0-36-17-36-36 0-20 16-36 36-36 20 1 36 16 36 36-1 20-16 36-36 36z m461 0c-20 0-36-16-36-36 0-20 16-36 36-36 20 0 36 16 36 36 0 20-16 36-36 36z m-351-56c-20 0-36-15-36-35-1-20 15-36 35-37 20 0 36 16 36 36 0 20-15 36-35 36z m240 632c0-16 15-30 31-30 17 0 30 14 30 31 0 17-14 30-30 30-17 0-32-15-31-31z m-415-415c-17 0-30-12-30-30 0-17 13-30 30-31s32 15 31 32c0 17-13 29-31 29z m62 385c-17 0-31-13-31-30-1-17 14-31 31-31 17 0 30 14 30 31s-13 30-30 30z m561-182c-17 0-31-14-31-31 0-16 14-30 30-30 17 0 31 14 31 30 0 17-14 31-30 31z m-561-347c16 0 30 14 30 30 0 17-14 31-30 31-17 0-31-14-31-31 0-16 14-30 31-30z m561 182c16 0 30 14 30 31 0 16-13 30-30 30-17 0-32-14-31-31 0-16 14-30 31-30z m-276-214c-16 0-30-14-31-30 0-17 14-31 31-31 17 0 31 13 31 30 0 17-14 31-31 31z m-30 624c-1-17 14-31 30-31 17 0 31 14 31 30 0 17-14 31-31 31-16 0-30-14-30-30z m-347-178c0-17 14-30 31-30 17 0 30 14 30 31 0 17-14 31-31 30-17 0-30-14-30-31z m651-299c0 16-14 29-30 29-17 0-31-13-31-30 0-16 14-30 31-30 17 0 30 14 30 31z m-622 201c0 17-14 31-31 31-16-1-29-14-30-30 0-17 14-31 30-31 17 0 31 13 31 30z m446-316c-17 0-30-14-30-31 1-17 14-30 31-30 17 0 30 14 30 31 0 17-14 30-31 30z m-202 561c17 0 31 13 31 30 0 17-14 31-30 31-16 0-30-13-30-30-1-17 12-31 29-31z m347-177c16 0 31 14 31 30 0 17-14 31-31 31-16 0-30-14-30-30 0-17 14-30 30-31z m-61-384c17 0 31 13 31 30 0 17-14 31-30 31-17 0-31-14-30-31 0-16 13-30 29-30z m-384 529c17 0 30 14 30 31 0 17-14 30-30 30-17-1-30-14-30-30 0-17 14-31 30-31z m-177-346c17-1 30 12 31 29 0 17-13 31-30 31-17 0-30-13-31-29 0-18 13-31 30-31z m562 346c-17 0-30-13-30-30-1-17 12-30 29-30 17-1 31 12 31 29 0 17-13 30-30 31z m-355-560c0 17-13 31-30 31-17 0-30-13-30-30 0-17 13-30 30-31 17 0 30 13 30 30z m99-32c0 17-13 31-30 31-17 0-30-14-30-31 0-16 13-29 29-30 17 0 31 13 31 30z m132 65c0 15-11 25-25 25-14 0-26-12-26-25 0-13 12-25 25-26 14 0 26 12 26 26z m-333 126c-15 0-26-10-26-25 0-14 11-26 25-27 13 0 26 13 26 26 0 13-11 25-25 26z m524 136c1 13-11 25-24 26-15 0-26-10-27-24 0-15 10-27 24-27 14-1 27 11 27 25z m-216 288c-14 0-26-11-26-25 0-14 12-26 26-26 13 0 25 12 25 25 0 15-10 26-25 26z m-334-126c0-14 12-25 25-25 14 0 26 12 26 26 0 13-12 25-26 25-15 0-25-11-25-26z m485-76c0-14 13-26 26-26 14 0 25 12 25 27 0 13-11 24-25 24-14 0-26-12-26-25z m-74-283c-14 0-26-12-26-26 0-13 12-25 25-25 15 0 26 10 26 24 0 15-11 27-25 27z m-450 283c-1-14 12-26 25-26 14 0 25 12 25 25 1 15-10 26-25 26-14 0-25-11-25-25z m151-309c0 14-12 26-25 26-14 0-26-12-26-26 0-13 11-25 25-25 15 0 26 11 26 25z m359 360c14 0 26 12 26 26 0 13-12 25-25 25-14 0-25-11-25-25-1-14 11-25 24-26z m26-299c0 14-11 25-25 25-14 0-25-11-26-24 0-14 12-26 26-26 14 0 25 12 25 25z m-524 137c13 0 25 12 25 25 0 14-11 25-25 26-14 0-25-11-26-25 0-14 12-26 26-26z m438 274c-14 0-25-11-26-25 0-14 12-26 26-25 14 0 25 11 25 25 0 14-12 25-25 25z m-324-50c14 0 24 11 24 25 0 13-11 25-24 25-14 0-26-12-26-26 0-14 12-25 26-24z m162-500c13 0 24 12 24 26 1 13-11 25-24 25-14 0-25-11-26-25 0-14 12-26 26-26z m-1 603c-13 0-25-12-25-25 0-14 11-26 26-26 14 0 24 11 25 25 0 14-11 26-26 26z m288-387c0 14-11 25-25 25-14 1-26-11-26-25 1-13 12-25 26-25 13 0 25 11 25 25z m-374 373c-13 0-24-12-24-26 0-13 12-25 26-24 14 0 25 12 24 26 0 14-12 24-26 24z m-176-398c14 0 25 11 25 25 0 14-10 25-24 25-15 1-26-11-26-25 0-14 12-25 25-25z m202-152c0 14-10 25-24 25-14 0-25-10-26-24 0-14 11-26 25-26 14 0 25 11 25 25z m-102 78c12 1 21 10 21 22 0 12-8 21-20 21-12 0-22-9-23-21 0-11 11-22 22-22z m369 220c0-12 9-21 21-21 11 0 22 11 21 22 0 11-10 21-21 21-13 0-22-10-21-22z m-103-262c12 0 22 10 22 22 0 12-9 20-21 21-12 0-22-10-22-21 0-11 10-22 21-22z m-330 331c0-11 10-22 22-22 12 0 21 10 21 22-1 12-9 21-21 21-12 0-22-9-22-21z m263 144c-11 1-22-10-22-21 0-12 9-21 21-21 13-1 22 8 22 21-1 11-10 21-21 21z m-264-234c11 0 21 10 22 21s-9 21-21 22c-11 0-21-9-22-21 0-11 10-22 21-22z m432 68c12 0 21 10 21 22 0 12-8 21-20 21-12 0-22-10-22-21 0-12 10-22 21-22z m-42-266c11-1 21 9 21 20 0 12-9 22-20 22-12 0-22-9-22-21 0-12 9-21 21-21z m-267-43c12 0 21 10 21 22 0 12-9 21-21 21-12-1-21-10-21-22 0-11 10-21 21-21z m47 453c1-11 10-20 22-20 11 0 20 9 21 20 0 12-9 21-21 22-11 0-22-10-22-22z m22-474c11 0 20 9 20 21 0 11-9 21-21 21-11 0-20-10-20-22 0-11 9-21 21-20z m-127 431c-12 0-21-10-21-21 0-11 9-21 21-21 12 0 21 9 21 21 0 12-9 21-21 21z m267 42c-11 0-21-9-21-21 0-11 9-21 21-21 11 0 21 10 21 21 0 12-9 21-21 21z m-48-453c0 12-9 21-20 22-11 0-21-10-22-21 0-12 10-21 21-21 12-1 21 9 21 20z m171 171c11 0 21 9 21 20 0 12-10 21-21 21-12 0-21-9-21-20 0-12 9-21 21-21z m-433 20c0 12-10 21-21 21-12 0-21-9-22-20 0-12 10-21 21-21 12 0 21 9 22 20z m431-68c0 12-9 21-21 21-12 0-21-10-21-21 1-12 10-21 22-21 11 0 20 10 20 21z m-351 309c1-12 10-21 22-21s20 10 20 22-10 20-21 20c-12 0-21-10-21-21z m-79-288c-12 0-21-9-21-20-1-12 9-22 20-22 12 0 21 9 21 21 1 12-8 21-20 21z m367 267c-12 0-21-9-21-21 1-12 9-21 21-21 11 0 21 9 21 21 0 12-9 21-21 21z m-161-11c9 0 17 9 16 18 0 10-9 18-18 17-9 0-17-8-17-18 0-9 9-18 19-17z m135-61c0-9 8-17 17-17 9-1 18 8 18 17 0 9-8 18-18 18-9 0-17-8-17-18z m-25-248c-10 0-18-8-18-17 1-10 9-18 18-18 10 0 18 8 18 17 0 10-8 19-18 18z m-310 196c0-10 8-19 18-18 10 0 18 8 18 17-1 10-9 18-18 18-10 0-18-8-18-17z m87-231c10 0 17 7 17 17 0 10-7 18-17 18-10 1-17-7-18-17 0-10 7-18 18-18z m265 43c10-1 18 7 18 17 0 10-8 17-18 17-10 0-17-8-17-17-1-10 7-17 17-17z m45 187c0 10-8 18-18 18-10 0-17-7-17-18 0-9 7-17 17-17 10-1 17 7 18 17z m-258-257c10 0 18 8 18 17 1 10-7 18-17 18-9 1-17-7-17-17-1-10 7-18 16-18z m-131 181c10 0 18 8 18 17 0 10-7 17-17 18-9 0-18-7-18-17 0-9 8-18 17-18z m114 197c1-9 8-16 18-16 10 0 17 8 17 17 0 10-8 18-18 18-10-1-17-9-17-19z m118 0c1-9 8-16 18-16 9 0 16 8 17 17 0 10-8 18-18 17-10 0-17-8-17-18z m-153-43c9 0 17 8 17 17 0 10-7 17-16 17-10 1-18-7-18-17 0-10 8-17 17-17z m224 34c-10 1-18-7-18-17 0-9 7-17 17-17 9-1 18 8 18 17 0 9-8 17-17 17z m-266-41c-9 0-18-9-18-18 1-9 8-17 17-17 10 0 18 8 18 17 0 10-8 17-17 18z m17-241c0 10-8 17-17 17-10 0-18-8-18-18 1-9 8-16 18-16 10 0 17 7 17 17z m137-96c9 0 17 8 17 18-1 9-8 17-18 16-9 0-17-7-17-16 0-9 8-18 18-18z m197 149c0 10-7 17-17 17-9 0-17-8-17-18 0-9 8-17 18-16 10 0 16 8 16 17z m-121-122c0 9-9 17-18 17-9 0-17-8-17-17 0-10 8-18 18-18 9 1 16 8 17 18z m131 181c0 9-8 17-18 17-9-1-17-8-17-17 0-10 8-18 18-18 9 0 17 9 17 18z m-389-76c10-1 18 7 18 17 0 9-8 17-17 17-9 0-17-7-17-16-1-10 6-18 16-18z m27 115c-7 0-15-7-15-15 0-8 7-14 15-14 8-1 15 6 15 14 0 8-7 14-15 15z m0-50c-8 0-14-6-14-14 0-8 7-15 15-14 7 0 14 7 14 14 0 8-7 15-15 14z m265 106c8 1 15 8 15 16-1 7-8 14-15 14-8-1-14-7-15-15 0-8 8-15 15-15z m-181-250c8 1 14 6 14 15 1 8-7 15-14 15-8 0-15-7-15-15 0-8 7-15 15-15z m47-14c7 0 14 7 14 14-1 8-8 15-16 15-7-1-14-8-13-15 0-8 7-15 15-14z m-16 323c0-8 7-15 16-14 7 0 14 6 14 14 0 8-7 14-15 14-8 0-15-6-15-14z m-85-226c0 8-7 15-15 15-7 0-14-7-14-14 0-8 7-15 14-15 8 0 14 7 15 14z m236-53c8 0 14 6 14 14 0 8-7 14-16 14-7 0-14-7-14-14 0-8 7-15 16-14z m14 196c0-9 4-14 13-15 9 0 15 6 15 14 0 8-5 14-13 15-9 0-15-6-15-14z m15-157c7 0 13 7 13 15 0 8-7 14-14 14-8 0-15-7-14-16 0-7 7-13 15-13z m-212 239c-8 0-14-7-14-14 0-8 7-14 14-14 9 0 16 7 15 15 0 7-7 13-15 13z m96 15c-8 0-14-6-14-14-1-7 6-14 14-14 7 0 14 6 14 13 0 8-6 15-14 15z m47-15c-9 0-14-6-14-14-1-8 5-14 13-14 8 0 14 6 15 14-1 8-6 14-14 14z m-33-308c0 8-6 14-14 14-8 0-14-6-14-14 0-7 6-14 14-14 7 0 14 6 14 14z m-163 44c0-8 5-14 13-14 9 0 15 5 15 13 0 9-5 15-14 15s-14-6-14-14z m279 149c-8 0-14-6-14-14 0-8 6-14 14-14 8 0 14 6 14 14 0 8-6 14-14 14z m-293 46c-8 1-15-6-15-13 0-8 6-14 14-15 8 0 14 6 15 14 0 8-7 14-14 14z m223-224c1 8-6 14-13 15-8 0-14-7-14-15-1-7 6-14 13-14 8 0 14 6 14 14z m56 115c0-8 6-14 14-14 8 0 14 6 14 14s-6 14-14 14c-8 0-14-6-14-14z m-251 149c-8 0-14-6-14-14 0-8 6-14 14-14 8 0 14 6 14 14 0 8-6 14-14 14z" horiz-adv-x="1000" />

<glyph glyph-name="pubmed" unicode="&#xe99f;" d="M340 530c6 224-125 254-125 254v-70c-52 26-103 30-103 30v-570c0 0 219 26 219-188 0 0 82 342 556-59 0 137 1 484 1 598-437 319-548 5-548 5z m418-388l-28 218h-1l-91-218h-39l-87 218h-1l-32-218h-98l65 379h97l77-203 81 203h98l57-379h-98z" horiz-adv-x="1000" />

<glyph glyph-name="biorxiv" unicode="&#xe9a2;" d="M750 325c13 18 26 32 37 49 27 44 70 114 80 134 5 10 13 17 18 18 4 0 10 0 15-3 6-3 9-11 6-26s-6-20-11-32c-29-63-71-118-116-170-8-10-8-17-4-29 21-48 39-96 59-144 7-16 15-32 23-47 9-15 15-24 40-23 10 0 30 3 32-12 1-17-19-19-30-22-14-2-21-4-34-4-32 0-69 12-85 41-16 28-24 49-39 88-9 26-20 52-31 80-6-7-12-11-16-17-48-65-76-118-97-154-17-29-19-42-39-38-18 7-13 32-11 38 8 37 35 73 56 104 23 36 52 68 78 102 4 5 6 14 4 19-23 57-47 113-71 169-13 28-22 46-73 44-8 1-14 3-13 13 0 12 8 16 13 18 58 17 117 12 147-53 19-40 35-81 53-122 2-6 5-12 9-21z m-679-149c14 10 23 20 29 29 5 9 8 20 8 33v393c0 11-3 22-7 32-3 5-6 10-9 14s-9 11-17 20h179c59 0 104-12 137-35 33-24 50-57 50-98 0-33-11-61-34-83-12-12-24-21-36-27-12-6-31-12-57-18l48-65c10-13 24-30 41-50 19-21 40-43 62-66 20-21 36-36 47-45 11-10 28-21 52-34h-117c-20 0-40 11-63 33-26 27-52 59-79 98-18 25-35 47-49 68-11 16-27 41-47 74 90 13 136 48 136 106 0 54-39 81-115 81h-29v-396c0-14 2-25 7-34 5-9 15-19 30-30h-167z" horiz-adv-x="1000" />

<glyph glyph-name="cv" unicode="&#xe9a5;" d="M488 214c-17-26-33-52-69-77-20-14-64-41-128-41-122 0-220 89-220 244 0 135 93 243 222 243 53 0 100-19 134-46 32-25 47-51 60-73l-91-46c-6 15-14 31-34 48-22 17-44 22-63 22-74 0-113-68-113-145 0-101 51-151 113-151 59 0 83 42 99 68l90-46z m319 354h122l-159-458h-117l-157 458h122l94-326z" horiz-adv-x="1000" />

<glyph glyph-name="academia" unicode="&#xe9af;" d="M544-11c0-15 0-30 0-44 128-1 256 0 385 0 0 14 0 29 0 43-26 6-58 13-68 41-99 245-199 490-296 736-71 1-142 1-213 0 13-29 24-60 38-90-83-216-168-432-253-648-9-27-40-34-65-39 0-14-1-29-1-43 82-1 164 0 246 0 0 14 0 29 0 44-26 4-55 3-76 21-17 16-9 41-3 59 17 43 32 85 50 127 99-1 198 0 298 0 13-34 27-68 40-102 9-23 18-48 10-73-19-32-60-30-92-32z m-226 286c38 101 78 201 115 302 40-101 81-202 121-302-79-1-157-1-236 0z" horiz-adv-x="1000" />

<glyph glyph-name="google-scholar" unicode="&#xe9d4;" d="M793 689v60l44 35h-477l-289-251h192c-1-5-1-9-1-14 0-46 16-85 49-116 32-30 72-46 119-46 11 0 21 1 32 3-7-15-10-28-10-41 0-22 10-45 30-70-87-6-152-22-193-48-23-14-42-32-56-54-15-23-22-46-22-72 0-21 5-41 14-58s21-31 36-42c15-12 33-21 52-28 20-8 39-13 58-16 20-3 39-4 58-4 30 0 60 3 90 11 31 8 59 19 86 35 26 15 48 36 64 62 17 26 25 55 25 87 0 25-5 47-15 68-10 20-22 37-37 50-14 13-29 25-44 35-14 11-26 22-36 33-10 12-15 23-15 34 0 11 4 21 11 32 8 10 17 20 28 29 11 10 23 20 33 32 11 11 21 26 29 45 7 18 11 38 11 61 0 31-5 55-17 75-1 2-2 4-4 7l127 104v-38c-16-3-15-12-15-24v-287c0-14 11-25 25-25h9c13 0 24 11 24 25v287c0 12 1 21-15 24z m-240-497c3-2 9-6 18-14 9-7 15-12 18-16 3-4 8-9 14-17 7-7 11-14 13-19 2-6 5-13 7-20 2-8 3-16 3-24 0-38-14-66-44-85-29-18-64-27-104-27-21 0-41 2-61 7-20 5-38 12-56 22-19 9-33 22-44 39-11 17-17 37-17 59 0 23 7 43 19 60 13 17 29 30 49 39 21 9 41 15 62 18 21 4 42 6 63 6 10 0 18 0 24-1 1-1 6-5 17-13 10-8 17-12 19-14z m-7 224c-17-19-40-29-69-29-27 0-50 10-70 32-20 21-34 45-43 72-9 27-13 54-13 80 0 30 8 56 24 78 16 21 39 32 69 32 26 0 50-11 70-34 20-22 35-48 44-76 8-28 13-54 13-80 0-30-9-55-25-75z" horiz-adv-x="1000" />

<glyph glyph-name="orcid" unicode="&#xe9d9;" d="M639 461c-12 6-24 10-35 12-11 2-28 3-53 3h-63v-264h65c25 0 45 1 59 5s26 8 35 13c10 5 18 12 26 20 25 25 38 57 38 96 0 38-13 69-39 93-9 9-20 17-33 22z m-139 323c-237 0-429-192-429-429s192-428 429-428 429 192 429 428-192 429-429 429z m-142-618h-51v355h51v-355z m-26 392c-19 0-35 15-35 35 0 19 16 35 35 35 20 0 35-16 35-35 0-20-15-35-35-35z m417-283c-9-21-22-41-39-57-17-17-37-30-60-38-13-6-26-9-37-11-11-2-32-3-64-3h-112v355h120c48 0 86-7 114-22 28-14 51-36 67-64 17-28 25-59 25-92 0-23-4-46-14-68z" horiz-adv-x="1000" />

<glyph glyph-name="bookmark-empty" unicode="&#xf097;" d="M643 707h-572v-693l237 227 49 47 50-47 236-227v693z m7 72q12 0 24-5 19-8 29-23t11-35v-719q0-19-11-35t-29-23q-10-4-24-4-27 0-47 18l-246 236-246-236q-20-19-46-19-13 0-25 5-18 7-29 23t-11 35v719q0 19 11 35t29 23q12 5 25 5h585z" horiz-adv-x="714.3" />

<glyph glyph-name="twitter" unicode="&#xf099;" d="M904 622q-37-54-90-93 0-8 0-23 0-73-21-145t-64-139-103-117-144-82-181-30q-151 0-276 81 19-2 43-2 126 0 224 77-59 1-105 36t-64 89q19-3 34-3 24 0 48 6-63 13-104 62t-41 115v2q38-21 82-23-37 25-59 64t-22 86q0 49 25 91 68-83 164-133t208-55q-5 21-5 41 0 75 53 127t127 53q79 0 132-57 61 12 115 44-21-64-80-100 52 6 104 28z" horiz-adv-x="928.6" />

<glyph glyph-name="github-circled" unicode="&#xf09b;" d="M429 779q116 0 215-58t156-156 57-215q0-140-82-252t-211-155q-15-3-22 4t-7 17q0 1 0 43t0 75q0 54-29 79 32 3 57 10t53 22 45 37 30 58 11 84q0 67-44 115 21 51-4 114-16 5-46-6t-51-25l-21-13q-52 15-107 15t-108-15q-8 6-23 15t-47 22-47 7q-25-63-5-114-44-48-44-115 0-47 12-83t29-59 45-37 52-22 57-10q-21-20-27-58-12-5-25-8t-32-3-36 12-31 35q-11 18-27 29t-28 14l-11 1q-12 0-16-2t-3-7 5-8 7-6l4-3q12-6 24-21t18-29l6-13q7-21 24-34t37-17 39-3 31 1l13 3q0-22 0-50t1-30q0-10-8-17t-22-4q-129 43-211 155t-82 252q0 117 58 215t155 156 216 58z m-267-616q2 4-3 7-6 1-8-1-1-4 4-7 5-3 7 1z m18-19q4 3-1 9-6 5-9 2-4-3 1-9 5-6 9-2z m16-25q6 4 0 11-4 7-9 3-5-3 0-10t9-4z m24-23q4 4-2 10-7 7-11 2-5-5 2-11 6-6 11-1z m32-14q1 6-8 9-8 2-10-4t7-9q8-3 11 4z m35-3q0 7-10 6-9 0-9-6 0-7 10-6 9 0 9 6z m32 5q-1 7-10 5-9-1-8-8t10-4 8 7z" horiz-adv-x="857.1" />

<glyph glyph-name="rss" unicode="&#xf09e;" d="M214 100q0-45-31-76t-76-31-76 31-31 76 31 76 76 31 76-31 31-76z m286-69q1-15-9-26-10-12-27-12h-75q-14 0-24 9t-11 23q-12 128-103 219t-219 103q-14 1-23 11t-9 24v75q0 16 12 26 9 10 24 10h3q89-7 170-45t145-101q63-63 101-145t45-171z m286-1q1-15-10-26-10-11-26-11h-80q-14 0-25 10t-10 23q-7 120-57 228t-129 188-188 129-227 57q-14 1-24 11t-10 24v80q0 16 11 26 10 10 25 10h1q147-8 280-67t238-164q104-104 164-238t67-280z" horiz-adv-x="785.7" />

<glyph glyph-name="mail-alt" unicode="&#xf0e0;" d="M1000 454v-443q0-37-26-63t-63-27h-822q-36 0-63 27t-26 63v443q25-27 56-49 202-137 278-192 32-24 51-37t53-27 61-13h2q28 0 61 13t53 27 51 37q95 68 278 192 32 22 56 49z m0 164q0-44-27-84t-68-69q-210-146-262-181-5-4-23-17t-30-22-29-18-32-15-28-5h-2q-12 0-27 5t-32 15-30 18-30 22-23 17q-51 35-147 101t-114 80q-35 23-65 64t-31 77q0 43 23 72t66 29h822q36 0 63-26t26-63z" horiz-adv-x="1000" />

<glyph glyph-name="linkedin" unicode="&#xf0e1;" d="M195 501v-553h-184v553h184z m12 171q0-41-29-68t-75-27h-1q-46 0-74 27t-28 68q0 41 29 68t75 27 74-27 29-68z m650-407v-317h-183v296q0 59-23 92t-71 33q-35 0-58-19t-36-48q-6-17-6-45v-309h-184q1 223 1 361t0 165l-1 27h184v-80h-1q11 18 23 31t31 29 49 24 64 9q95 0 153-63t58-186z" horiz-adv-x="857.1" />

<glyph glyph-name="lightbulb" unicode="&#xf0eb;" d="M411 529q0-8-6-13t-12-5-13 5-5 13q0 25-30 39t-59 14q-7 0-13 5t-5 13 5 13 13 5q28 0 55-9t49-30 21-50z m89 0q0 40-19 74t-50 57-69 35-76 12-76-12-69-35-50-57-20-74q0-57 38-101 6-6 17-18t17-19q72-85 79-166h127q8 81 79 166 6 6 17 19t17 18q38 44 38 101z m71 0q0-87-57-150-25-27-42-48t-33-54-19-60q26-15 26-46 0-20-13-35 13-15 13-36 0-29-25-45 8-13 8-26 0-26-18-40t-43-14q-11-25-34-39t-48-15-49 15-33 39q-26 0-44 14t-17 40q0 13 7 26-25 16-25 45 0 21 14 36-14 15-14 35 0 31 26 46-2 28-19 60t-33 54-41 48q-58 63-58 150 0 55 25 103t65 79 92 49 104 19 104-19 91-49 66-79 24-103z" horiz-adv-x="571.4" />

<glyph glyph-name="code" unicode="&#xf121;" d="M344 69l-28-28q-5-5-12-5t-13 5l-260 261q-6 5-6 12t6 13l260 260q5 6 13 6t12-6l28-28q6-5 6-13t-6-12l-219-220 219-219q6-6 6-13t-6-13z m330 596l-208-721q-2-7-9-11t-13-1l-34 9q-8 3-11 9t-2 14l209 720q2 8 8 11t13 2l35-10q7-2 11-9t1-13z m367-363l-260-261q-6-5-13-5t-13 5l-28 28q-5 6-5 13t5 13l219 219-219 220q-5 5-5 12t5 13l28 28q6 6 13 6t13-6l260-260q5-5 5-13t-5-12z" horiz-adv-x="1071.4" />

<glyph glyph-name="rss-squared" unicode="&#xf143;" d="M286 136q0 29-21 50t-51 21-50-21-21-50 21-51 50-21 51 21 21 51z m196-53q-8 130-99 222t-221 98q-8 1-14-5t-5-13v-71q0-7 5-12t12-6q86-6 147-68t67-147q1-7 6-12t12-5h72q7 0 13 6t5 13z m214 0q-3 86-31 166t-78 145-115 114-145 78-166 31q-7 1-13-5-5-5-5-13v-71q0-7 5-12t12-6q114-4 211-62t156-155 62-211q0-8 5-13t13-5h71q7 0 13 6 6 5 5 13z m161 535v-536q0-66-47-113t-114-48h-535q-67 0-114 48t-47 113v536q0 66 47 113t114 48h535q67 0 114-48t47-113z" horiz-adv-x="857.1" />

<glyph glyph-name="youtube-play" unicode="&#xf16a;" d="M397 221l270 139-270 141v-280z m103 481q94 0 181-3t128-5l41-2q0 0 9-1t13-2 13-2 16-5 16-7 17-11 16-15q4-3 9-10t16-33 15-56q4-36 7-76t3-64v-98q1-81-10-162-4-30-14-55t-18-35l-8-9q-7-8-16-15t-17-10-16-7-16-5-13-2-13-2-9-1q-140-11-350-11-115 2-201 4t-111 4l-28 3-20 2q-20 3-30 5t-29 12-31 23q-4 3-9 10t-16 33-15 56q-4 36-7 76t-3 64v98q-1 81 10 162 4 31 14 55t18 35l8 9q8 9 16 15t17 11 16 7 16 5 13 2 13 2 9 1q140 10 350 10z" horiz-adv-x="1000" />

<glyph glyph-name="mail-squared" unicode="&#xf199;" d="M696 779q67 0 114-48t47-113v-536q0-66-47-113t-114-48h-535q-67 0-114 48t-47 113v536q0 66 47 113t114 48h535z m18-590v244q-17-20-35-31-19-12-74-47t-85-56q-55-38-91-38-37 0-92 38-26 18-79 52t-79 52q-7 4-19 15t-17 15v-244q0-22 16-38t37-15h465q22 0 38 15t15 38z m0 320q0 23-15 39t-38 16h-465q-22 0-37-15t-16-38q0-21 17-43t38-36q26-18 76-50t73-46q1-1 9-6t12-8 12-7 13-8 12-5 12-4 12-2 11 2 13 4 12 5 13 8 11 7 12 8 10 6l149 97q19 13 37 35t17 41z" horiz-adv-x="857.1" />

<glyph glyph-name="paypal" unicode="&#xf1ed;" d="M848 490q10-47-3-114-48-248-315-248h-24q-14 0-25-9t-13-24l-3-11-30-193-1-8q-3-15-14-24t-25-9h-140q-12 0-18 8t-5 20q5 32 14 94t15 94 15 93 15 94q3 21 24 21h73q75-2 132 11 98 22 160 81 57 53 87 137 13 39 19 74 1 4 2 4t2 1 3-2q44-33 55-90z m-96 157q0-60-26-132-45-130-168-176-64-22-141-23 0-1-50-1l-51 1q-55 0-65-54-2-4-48-295 0-6-7-6h-164q-12 0-21 9t-6 22l130 821q2 16 15 26t29 11h333q19 0 55-7t62-18q60-23 91-69t32-109z" horiz-adv-x="857.1" />

<glyph glyph-name="linkedin-squared" unicode="&#xf30c;" d="M132 61h129v387h-129v-387z m138 507q-1 29-21 48t-51 19-53-19-21-48q0-29 20-48t52-19h0q33 0 53 19t21 48z m326-507h129v222q0 86-41 130t-107 44q-76 0-117-65h1v56h-129q2-37 0-387h129v217q0 21 4 31 8 19 25 33t41 14q65 0 65-88v-207z m261 557v-536q0-66-47-113t-114-48h-535q-67 0-114 48t-47 113v536q0 66 47 113t114 48h535q67 0 114-48t47-113z" horiz-adv-x="857.1" />
</font>
</defs>
</svg>
