<svg width="120" height="100%" viewBox="0 0 2428 712" xmlns="http://www.w3.org/2000/svg"><g fill="none" fill-rule="evenodd"><path fill="#000" d="M.756.11v711.78h2426.488V.11H.756z"/><path d="M2082.326 361.992h333.011v338.005h-333.011V361.992zm-12.101-349.99v338.019h-332.817V12.003h332.817zm-689.836 0v338.019h-332.791V12.003h332.791zm-689.81 0v338.019H357.775V12.003h332.804zM12.65 699.998V361.992h333.025v338.005H12.65zm690.031 0V361.992h332.817v338.005H702.68zm689.823 0V361.992h332.804v338.005h-332.804z" fill="#FFF" fill-rule="nonzero"/><path d="M1909.97 310.437c67.884 0 122.915-53.617 122.915-119.776 0-66.145-55.018-119.762-122.914-119.762-67.897 0-122.94 53.617-122.94 119.762.012 66.146 55.056 119.776 122.94 119.776zm-347.68 329.834c67.884 0 122.915-53.63 122.915-119.763 0-66.132-55.018-119.762-122.915-119.762s-122.914 53.63-122.914 119.762c0 66.133 55.03 119.763 122.914 119.763zM584.474 308.777h86.365L525.98 65.867l-144.858 242.91h86.352l14.63-24.513h87.754l14.617 24.513zm748.264-247.372H1103.2v69.09h66.86v180.513h95.833V130.495h66.846v-69.09zM987.301 395.7H757.763v69.09h66.859v180.527h95.833V464.79h66.846V395.7zm-676.762 0v242.924l-149.308-86.923v89.154H73.57V397.93l149.308 86.91v-89.14h87.662zm2083.8 245.155l-90.645-126.287 72.812-118.868h-99.556l-49.039 64.123V395.7h-96.573v245.155h96.573v-64.538l56.458 64.538h109.97z" fill="#000" fill-rule="nonzero"/><path d="M1555.61 310.437c67.884 0 122.941-53.617 122.941-119.776 0-66.145-55.044-119.762-122.94-119.762-67.897 0-122.915 53.617-122.915 119.762 0 66.146 55.018 119.776 122.915 119.776zM235.082 215.473c-11.405 21.898-36.3 33.164-60.278 27.278-23.978-5.886-40.827-27.4-40.795-52.09.023-24.66 16.871-46.121 40.821-51.997 23.95-5.876 48.818 5.35 60.252 27.2l63.552-26.602C278.893 98.836 236.599 70.9 187.586 70.9c-67.884 0-122.915 53.617-122.915 119.762 0 66.16 55.031 119.776 122.915 119.776 49 0 91.294-27.95 111.047-68.363l-63.552-26.601zm2131.75-152.771v242.923l-149.308-86.923v89.154h-87.676V64.933l149.334 86.923V62.702h87.65zM437.578 400.149v236.244h173.834v-54.978h-93.227v-22.283h93.227v-68.337h-93.227v-26.757h93.227V400.15H437.578zm850.61 0l-34.176 91.06-34.928-62.072-34.914 62.073-34.176-91.06h-75.77l85.433 229.55 59.427-62.397 59.428 62.398 85.431-229.552h-75.756zM881.571 248.61h-48.04v57.95h-75.77V64.737H876.63c12.192 0 21.75-.623 25.992 0 88.402 13.009 80.983 113.29 37.3 144.6l60.764 97.208h-89.154l-29.96-57.936zM1920.1 581.415h-48.027v57.961h-75.77v-241.82h118.855c12.18 0 21.764-.623 25.992 0 88.402 12.995 80.983 113.277 37.314 144.586l60.75 97.221h-89.14l-29.974-57.948zm-63.708-390.754a53.591 53.591 0 1 1 107.17.013c-.46 29.27-24.319 52.755-53.591 52.751-29.273-.003-53.127-23.495-53.579-52.764zm-347.667 329.847a53.591 53.591 0 1 1 107.17.013c-.46 29.27-24.32 52.755-53.592 52.751-29.272-.003-53.126-23.495-53.578-52.764zm-992.07-294.193l9.325-15.641 9.325 15.641h-18.65z" fill="#FFF" fill-rule="nonzero"/><path d="M1502.033 190.661a53.591 53.591 0 1 1 107.169.013c-.46 29.27-24.319 52.755-53.591 52.751-29.273-.003-53.127-23.495-53.578-52.764zM834.27 120.456v64.265h28.235c8.924 0 34.176-5.2 34.176-33.423 0-28.235-26.744-30.829-34.176-30.829l-28.235-.013zm1038.541 332.817v64.252h28.248c8.924 0 34.176-5.187 34.176-33.423 0-28.235-26.744-30.829-34.176-30.829h-28.248z" fill="#000" fill-rule="nonzero"/></g></svg>