<svg width="210" height="100%" viewBox="0 0 2428 416" xmlns="http://www.w3.org/2000/svg"><g fill-rule="nonzero" fill="none"><path d="M2427.244 162.852h-178.01C2272.592 74.956 2293.72.42 2293.72.42s-80.101 85.665-151.305 162.433h-705.361c-4.436 0-4.436 2.231 0 2.231 2.23 0 692.002 12.23 692.002 12.23-55.628 58.961-85.665 92.345-86.755 93.46-2.23 2.231 0 3.347 2.205 1.116 1.115-1.115 41.192-37.846 97.909-94.575l87.896 1.115c-5.577 25.59-10 48.948-16.692 76.768-107.909 57.858-283.688 152.42-283.688 152.42-2.23 1.116-1.115 3.347 1.115 2.231 1.116-1.115 164.652-83.447 279.226-141.305-18.896 85.665-31.127 144.613-31.127 145.728-1.115 1.116 1.115 2.23 2.23 0 0-1.115 16.667-60.063 41.167-151.305 102.331-52.268 204.702-100.114 204.702-100.114zm-270.368 0c53.396-52.294 97.909-94.575 97.909-94.575s-7.782 36.717-21.128 94.575h-76.781zm87.909 15.59l106.793 2.218s-53.396 28.922-125.716 67.858c6.68-24.474 12.23-45.602 18.923-70.076z" fill="#2D509F"/><path d="M17.461 215.16h31.14l-12.23 57.857h28.923l-4.449 22.23H.756l16.705-80.088zm155.741-1.116c27.82 0 37.833 16.692 32.27 41.166-5.565 24.474-22.244 41.166-50.064 41.166-26.705 0-36.718-16.692-31.154-41.166 4.462-24.474 22.257-41.166 48.948-41.166zm-13.346 62.28c5.564 0 8.91-3.32 13.346-21.127 3.347-17.808 1.116-21.154-4.448-21.154-4.449 0-8.91 3.346-12.23 21.154-4.462 17.82-1.116 21.128 3.332 21.128zm176.895-11.114c-4.449 22.269-23.359 31.153-43.384 31.153-27.82 0-36.717-16.692-31.153-41.166 4.448-25.59 22.243-41.166 48.948-41.166 20.025 0 35.602 7.782 30.038 31.153h-28.923c2.23-8.923-1.115-11.14-4.449-11.14-8.91 0-11.128 8.922-13.345 21.153-3.347 12.23-4.449 21.128 3.333 21.128 4.448 0 7.795-2.205 10.012-11.115h28.923zm78.999-50.05h30.038l-6.68 34.473 23.372-34.474h33.371l-28.922 37.82 14.46 42.269h-33.383l-11.128-35.59-7.782 35.59h-30.038l16.692-80.089zm178.01 50.05H580.4l-5.564 30.038h-31.153l16.692-80.089h31.153l-5.564 26.692h13.346l5.577-26.692h31.14l-16.692 80.089h-31.153l5.577-30.038zm113.472-50.05h60.09l-4.462 21.127h-30.038l-2.231 8.91h27.82l-4.449 20.013h-27.82l-2.218 8.923h31.154l-4.462 21.115h-61.178l17.794-80.089zm132.396 0h60.076l-4.449 21.127h-30.038l-2.23 8.91h27.82l-3.334 20.013h-28.935l-1.116 8.923h31.167l-4.462 21.115h-61.191l16.692-80.089zm132.395 0h37.82c31.153 0 37.833 17.807 33.384 41.165-5.564 23.359-24.474 38.936-48.948 38.936h-38.935l16.68-80.102zm17.795 61.165h3.333c5.564 0 8.897-1.116 11.128-4.436 3.333-3.346 4.449-8.923 6.68-16.692 1.115-7.808 2.217-13.346 0-16.692-1.116-3.346-3.334-4.462-8.91-4.462h-2.219l-10.012 42.282zm258.11-37.82l-23.358 56.743h-28.935l1.115-56.743-12.23 56.743h-26.705l16.692-80.089h43.384l-1.115 47.82 18.922-47.82h43.384l-16.692 80.089h-26.692l12.23-56.743zm117.948-23.346h40.05l8.898 80.102h-32.269l-1.115-13.346h-22.243l-5.577 13.346h-30.013l42.269-80.102zm15.55 47.82v-30.012l-13.345 30.012h13.346zm117.948-47.82h46.743c16.666 0 25.59 5.551 22.243 20.013-2.23 10.025-6.692 16.692-20.038 18.923v1.115c7.807 0 11.14 3.346 11.14 10 1.09 6.692-2.23 17.807-1.115 30.038h-30.038c-1.115-6.667 0-16.692 1.116-23.359 0-3.346-2.231-5.577-6.693-5.577h-4.435l-5.577 28.923h-31.154l17.808-80.076zm25.59 33.359c6.691 0 11.114-2.231 12.23-7.782 1.115-5.577-2.231-6.693-8.898-6.693h-2.23l-3.347 14.462h2.244v.013zm130.177-11.116h-18.923l4.448-22.243h70.102l-4.462 22.243h-18.923l-12.23 57.846h-32.256l12.244-57.846zm125.716-22.243h31.127l-16.666 80.089h-31.154l16.693-80.089zm105.677 0h37.82l6.692 47.82 11.116-47.82h24.473l-16.692 80.089h-37.82l-5.576-48.961h-1.116l-10 48.96h-25.589l16.692-80.088z" fill="#696A6C"/></g></svg>