<svg width="125" height="100%" viewBox="0 0 2280 462" xmlns="http://www.w3.org/2000/svg"><g fill="#000" fill-rule="nonzero"><path d="M292.27 238.004L396.028 370.23c52.645 66.068 169.36 96.742 253.663 63.526l.74 1.116c-95.432 51.049-223.055 25.148-303.325-39.947-56.6-44.032-88.907-106.495-136.623-157.155v104.822c0 9.04 5.758 15.42 5.758 15.42l-41.684-.077s5.564-6.303 5.641-15.356V94.83c39.39 47.353 73.422 93.046 112.072 143.174zm1925.09 92.033a31.153 31.153 0 0 1 31.179-31.153c17.212.007 31.16 13.966 31.153 31.18-.007 17.212-13.966 31.16-31.18 31.152-17.212-.007-31.16-13.966-31.153-31.179zm31.14 28.04c15.486 0 28.04-12.553 28.04-28.04 0-15.486-12.554-28.04-28.04-28.04-15.487 0-28.04 12.554-28.04 28.04 0 15.487 12.553 28.04 28.04 28.04z"/><path d="M2234.895 311.257h16.873c7.704 0 11.673 3.567 11.673 9.546 0 6.783-4.682 8.508-5.823 8.923v.104c2.1.272 5.24 1.88 5.24 7.444 0 4.099.583 7.873 1.919 9.3h-6.64c-.934-1.544-.934-3.476-.934-5.188 0-6.46-1.35-9.352-7.017-9.352h-9.092v14.54h-6.212v-35.317h.013zm6.2 16.095h10.129c3.903 0 6.03-1.92 6.03-5.654 0-4.488-2.918-5.37-6.134-5.37h-10.026v11.024zm-150.84 34.63c-16.108.13-126.104-3.502-125.87-128.66.233-124.834 108.971-126.56 125.87-126.456 16.9-.09 125.652 1.635 125.872 126.456.22 125.158-109.763 128.776-125.871 128.66zm.455-34.565c6.939 0 57.806 2.309 57.326-98.946-.402-93.862-49.648-91.152-57.728-91.1h.077c-8.054-.052-57.507-2.762-57.935 91.1-.454 101.255 50.413 98.946 57.352 98.946h.908zm-157.868-206.491l-.026 31.023c-12.866-5.408-20.09-9.286-33.67-12.995-10.66-2.348-56.47-13.243-78.324 9.805-9.3 9.338-12.114 26.497 6.277 39.622 25.992 16.822 63.072 24.5 93.5 49.35 19.96 15.81 26.34 34.305 21.257 62.592-5.162 28.858-36.705 52.113-64.901 57.988-41.062 8.508-87.39 4.54-124.004-10.998l.156-30.622c33.67 14.06 86.106 31.997 118.647 3.515 8.897-8.132 14.332-19.883 9.624-31.815-7.393-22.191-67.69-35.316-104.588-62.877-36.523-22.412-33.229-60.854-20.44-82.125 34.46-51.593 121.85-37.34 176.492-22.463zm-211.096 0v31.023c-12.866-5.408-20.09-9.286-33.67-12.995-10.66-2.348-56.47-13.243-78.35 9.805-9.3 9.338-12.114 26.497 6.303 39.622 25.992 16.822 63.046 24.5 93.473 49.35 19.987 15.81 26.368 34.305 21.284 62.592-5.162 28.858-36.705 52.113-64.927 57.988-41.036 8.508-87.39 4.54-124.004-10.998l.182-30.622c33.67 14.06 86.106 31.997 118.647 3.515 8.871-8.132 14.319-19.883 9.598-31.815-7.393-22.191-67.69-35.316-104.562-62.877-36.55-22.412-33.255-60.854-20.44-82.125 34.434-51.593 121.85-37.34 176.466-22.463zm-864.539 0l-.026 31.023c-12.853-5.408-20.077-9.286-33.67-12.995-10.647-2.348-56.444-13.243-78.324 9.805-9.299 9.338-12.113 26.497 6.29 39.622 26.005 16.822 63.073 24.5 93.487 49.35 19.986 15.81 26.354 34.305 21.257 62.592-5.162 28.858-36.704 52.113-64.9 57.988-41.076 8.508-87.378 4.54-124.004-10.998l.168-30.622c33.67 14.06 86.106 31.997 118.648 3.515 8.884-8.132 14.331-19.883 9.636-31.815-7.406-22.191-67.702-35.316-104.588-62.877-36.549-22.412-33.242-60.854-20.44-82.125 34.434-51.593 121.838-37.34 176.466-22.463zm-539.75 109.633c38.65 50.128 72.67 95.808 112.072 143.147V125.958a25.55 25.55 0 0 1 5.63-15.356l-41.582-.04s5.68 6.317 5.68 15.396v104.834c-35.471-37.664-62.436-81.839-97.182-120.113-4.37-5.343-34.382-37.56-43.54-45.238C196.126 4.379 94.923-20.652.296 20.073l.934 1.66c32.32-11.05 79.076-10.83 124.886 7.756 29.545 10.894 54.083 26.082 78.506 56.185 6.238 8.313 112.837 144.885 112.837 144.885zm228.398 102.267c33.28 3.32 74.057-1.855 106.599-2.607l.051 27.716h-176.31s5.55-5.85 5.563-15.408V125.984c-.012-9.572-5.564-15.408-5.564-15.408h176.311l-.051 27.703c-32.529-.752-73.306-5.914-106.599-2.594l-.104 81.684c27.392 1.699 59.61 2.01 85.186-1.388v29.441c-25.07-2.334-58.001-2.866-85.134-1.387l.013 9.403.04 79.388zm865.615 0c33.28 3.32 74.045-1.855 106.599-2.607l.052 27.716H1341.81s5.55-5.85 5.55-15.408V125.984c0-9.572-5.55-15.408-5.55-15.408h176.31l-.051 27.703c-32.554-.752-73.305-5.914-106.599-2.594l-.104 81.684c27.38 1.699 59.583 2.01 85.16-1.388v29.441c-25.058-2.334-57.988-2.866-85.108-1.387v9.403l.052 79.388zm-239.538-77.119l.025 86.742c.026 9.546 5.577 15.5 5.577 15.5l-75.432-.027s5.538-5.85 5.551-15.408v-216.53c-.013-9.572-5.564-15.408-5.564-15.408l128.518.013c34.863 1.413 71.787 20.712 72.98 62.683.26 34.318-14.889 54.006-37.638 64.913-4.461 2.024-4.072 1.466-5.55 2.581 16.16 37.716 30.854 65.277 50.387 101.761 4.008 9.403 11.88 15.408 11.88 15.408h-77.844s4.604-6.005-.156-15.408c0 0-27.639-65.121-40.582-86.78l-32.152-.04zm-.364-113.913v83.305c21.232.09 47.016 2.788 61.814-14.228 12.49-16.627 10.441-38.274 2.024-53.436-14.786-24.966-63.838-15.641-63.838-15.641zM960.602 342.449a24.253 24.253 0 0 0 5.564 15.5l-75.445-.027s5.551-5.85 5.577-15.408v-216.53c-.013-9.572-5.577-15.408-5.577-15.408h124.6c31.232 1.09 55.29 15.447 65.667 45.588 7.768 26.627 6.653 61.036-12.218 82.475-25.148 33.67-108.414 28.676-108.414 28.676l.246 75.134zm-.311-200.448l-.169 92.786c21.452 1.466 47.003 3.852 61.801-13.164 12.477-16.653 10.44-48.922 2.037-64.084-14.786-24.967-63.67-15.538-63.67-15.538z"/></g></svg>